<svg width="200" height="61" viewBox="0 0 200 61" fill="none" xmlns="http://www.w3.org/2000/svg">
<path d="M48.5182 26.6703C38.9953 21.0087 23.2876 20.4882 14.1968 23.2503C12.7369 23.6935 11.1932 22.8685 10.7509 21.4071C10.3085 19.945 11.1318 18.4006 12.5926 17.9563C23.0282 14.7848 40.3757 15.3976 51.3386 21.9125C52.652 22.6927 53.0827 24.3903 52.3042 25.703C51.5252 27.0174 49.828 27.4507 48.5182 26.6703ZM48.2063 35.056C47.5385 36.1414 46.121 36.4814 45.0384 35.8154C37.0991 30.9298 24.9927 29.5145 15.6 32.3687C14.382 32.7372 13.0955 32.0497 12.7256 30.8325C12.3585 29.6132 13.0456 28.3275 14.2614 27.9567C24.9914 24.6972 38.3299 26.276 47.4485 31.886C48.5312 32.5534 48.872 33.9733 48.2063 35.056ZM44.5914 43.1093C44.0608 43.9806 42.927 44.2539 42.0599 43.7228C35.1223 39.4782 26.3903 38.5192 16.1069 40.871C15.1158 41.0985 14.1283 40.4765 13.9022 39.4848C13.6752 38.4927 14.2938 37.5043 15.2871 37.2779C26.5406 34.7024 36.1939 35.8109 43.9807 40.5744C44.8489 41.1051 45.1223 42.2406 44.5914 43.1093ZM31.0429 0.451115C14.7272 0.451115 1.50012 13.6921 1.50012 30.026C1.50012 46.3614 14.7272 59.6021 31.0429 59.6021C47.3593 59.6021 60.5856 46.3614 60.5856 30.026C60.5856 13.6921 47.3593 0.451115 31.0429 0.451115Z" fill="#1ED760"/>
<path d="M81.8757 27.7544C76.7749 26.5366 75.8665 25.6818 75.8665 23.8864C75.8665 22.1894 77.4625 21.048 79.8353 21.048C82.1354 21.048 84.4157 21.915 86.8072 23.6999C86.8795 23.754 86.9702 23.7755 87.0595 23.7614C87.1487 23.748 87.2274 23.6992 87.28 23.6251L89.7706 20.1103C89.8729 19.9659 89.845 19.766 89.7071 19.6554C86.8612 17.3694 83.6566 16.258 79.9108 16.258C74.4032 16.258 70.5562 19.5665 70.5562 24.301C70.5562 29.378 73.8748 31.1754 79.6095 32.563C84.4905 33.6886 85.3143 34.6314 85.3143 36.3173C85.3143 38.1851 83.6485 39.3464 80.9677 39.3464C77.9906 39.3464 75.5617 38.3424 72.845 35.9871C72.7776 35.9291 72.6852 35.9024 72.5998 35.9072C72.5102 35.9147 72.428 35.9563 72.3709 36.0251L69.5783 39.3524C69.4612 39.4905 69.476 39.6967 69.6111 39.816C72.7723 42.6411 76.6596 44.1335 80.8548 44.1335C86.7896 44.1335 90.6246 40.8869 90.6246 35.8624C90.6246 31.6159 88.0903 29.2675 81.8757 27.7544Z" fill="#1ED760"/>
<path d="M108.36 33.4456C108.36 37.0314 106.154 39.5335 102.994 39.5335C99.8713 39.5335 97.5154 36.9177 97.5154 33.4456C97.5154 29.9741 99.8713 27.3579 102.994 27.3579C106.103 27.3579 108.36 29.9175 108.36 33.4456ZM104.052 22.7181C101.479 22.7181 99.3693 23.7324 97.6294 25.8108V23.4714C97.6294 23.2867 97.4798 23.1363 97.2953 23.1363H92.7283C92.5438 23.1363 92.3945 23.2867 92.3945 23.4714V49.4654C92.3945 49.6502 92.5438 49.8005 92.7283 49.8005H97.2953C97.4798 49.8005 97.6294 49.6502 97.6294 49.4654V41.2606C99.3696 43.2157 101.48 44.1707 104.052 44.1707C108.831 44.1707 113.67 40.4871 113.67 33.4456C113.67 26.4026 108.831 22.7181 104.052 22.7181Z" fill="#1ED760"/>
<path d="M126.073 39.5711C122.799 39.5711 120.331 36.9375 120.331 33.4456C120.331 29.9392 122.714 27.3946 125.998 27.3946C129.293 27.3946 131.778 30.028 131.778 33.5222C131.778 37.0283 129.379 39.5711 126.073 39.5711ZM126.073 22.7181C119.917 22.7181 115.095 27.4634 115.095 33.5222C115.095 39.5152 119.884 44.2107 125.998 44.2107C132.175 44.2107 137.012 39.4814 137.012 33.4456C137.012 27.4302 132.208 22.7181 126.073 22.7181Z" fill="#1ED760"/>
<path d="M150.157 23.1364H145.131V17.9921C145.131 17.8074 144.983 17.6573 144.798 17.6573H140.231C140.047 17.6573 139.896 17.8074 139.896 17.9921V23.1364H137.7C137.516 23.1364 137.368 23.2868 137.368 23.4715V27.4011C137.368 27.5857 137.516 27.7361 137.7 27.7361H139.896V37.9045C139.896 42.0136 141.939 44.0969 145.968 44.0969C147.607 44.0969 148.966 43.7582 150.247 43.0311C150.351 42.9729 150.416 42.8605 150.416 42.7411V38.999C150.416 38.8834 150.355 38.7747 150.257 38.714C150.157 38.6515 150.034 38.6483 149.932 38.6988C149.052 39.1419 148.201 39.3465 147.251 39.3465C145.786 39.3465 145.131 38.6808 145.131 37.1879V27.7361H150.157C150.342 27.7361 150.491 27.5857 150.491 27.4011V23.4715C150.491 23.2868 150.342 23.1364 150.157 23.1364Z" fill="#1ED760"/>
<path d="M167.668 23.1563V22.5245C167.668 20.6658 168.38 19.8369 169.977 19.8369C170.929 19.8369 171.694 20.0262 172.55 20.3123C172.656 20.3454 172.766 20.3289 172.852 20.2656C172.94 20.2024 172.99 20.1011 172.99 19.9937V16.1406C172.99 15.9933 172.895 15.863 172.754 15.8199C171.849 15.5505 170.691 15.2736 168.957 15.2736C164.738 15.2736 162.509 17.6518 162.509 22.1487V23.1164H160.315C160.13 23.1164 159.979 23.2665 159.979 23.4512V27.401C159.979 27.5856 160.13 27.7359 160.315 27.7359H162.509V43.4201C162.509 43.6048 162.658 43.7549 162.842 43.7549H167.409C167.593 43.7549 167.744 43.6048 167.744 43.4201V27.7359H172.008L178.541 43.416C177.799 45.0634 177.07 45.3912 176.074 45.3912C175.27 45.3912 174.422 45.1506 173.556 44.6761C173.474 44.6311 173.378 44.6238 173.29 44.651C173.203 44.682 173.129 44.7467 173.092 44.8318L171.544 48.2317C171.471 48.3923 171.533 48.5811 171.688 48.6644C173.304 49.5405 174.763 49.9146 176.566 49.9146C179.938 49.9146 181.802 48.3416 183.446 44.1106L191.37 23.6126C191.409 23.5095 191.397 23.3933 191.334 23.3015C191.272 23.2111 191.17 23.1563 191.06 23.1563H186.305C186.163 23.1563 186.035 23.2467 185.988 23.3806L181.118 37.3089L175.782 23.3714C175.734 23.2418 175.609 23.1563 175.471 23.1563H167.668Z" fill="#1ED760"/>
<path d="M157.517 23.1361H152.949C152.765 23.1361 152.615 23.2866 152.615 23.4713V43.42C152.615 43.6048 152.765 43.7549 152.949 43.7549H157.517C157.701 43.7549 157.851 43.6048 157.851 43.42V23.4713C157.851 23.2866 157.701 23.1361 157.517 23.1361Z" fill="#1ED760"/>
<path d="M155.256 14.053C153.447 14.053 151.979 15.5197 151.979 17.3307C151.979 19.1432 153.447 20.6113 155.256 20.6113C157.065 20.6113 158.532 19.1432 158.532 17.3307C158.532 15.5197 157.065 14.053 155.256 14.053Z" fill="#1ED760"/>
<path d="M195.456 25.1205H194.619V26.1889H195.456C195.874 26.1889 196.123 25.9843 196.123 25.6544C196.123 25.3069 195.874 25.1205 195.456 25.1205ZM195.998 26.6445L196.907 27.919H196.141L195.322 26.7501H194.619V27.919H193.977V24.5411H195.482C196.265 24.5411 196.781 24.9427 196.781 25.6185C196.781 26.1722 196.462 26.5106 195.998 26.6445ZM195.286 23.4173C193.639 23.4173 192.393 24.7272 192.393 26.3319C192.393 27.9355 193.631 29.2282 195.269 29.2282C196.915 29.2282 198.162 27.919 198.162 26.3136C198.162 24.7099 196.924 23.4173 195.286 23.4173ZM195.269 29.55C193.461 29.55 192.055 28.0967 192.055 26.3319C192.055 24.5669 193.48 23.097 195.286 23.097C197.093 23.097 198.5 24.5503 198.5 26.3136C198.5 28.0786 197.076 29.55 195.269 29.55Z" fill="#1ED760"/>
</svg>
